<?xml version="1.0" encoding="UTF-8" standalone="no"?>
<!-- Created with Inkscape (http://www.inkscape.org/) -->

<svg
   xmlns:dc="http://purl.org/dc/elements/1.1/"
   xmlns:cc="http://creativecommons.org/ns#"
   xmlns:rdf="http://www.w3.org/1999/02/22-rdf-syntax-ns#"
   xmlns:svg="http://www.w3.org/2000/svg"
   xmlns="http://www.w3.org/2000/svg"
   xmlns:sodipodi="http://sodipodi.sourceforge.net/DTD/sodipodi-0.dtd"
   xmlns:inkscape="http://www.inkscape.org/namespaces/inkscape"
   width="744.09448819"
   height="1052.3622047"
   id="svg3061"
   version="1.1"
   inkscape:version="0.48.3.1 r9886"
   sodipodi:docname="New document 5">
  <defs
     id="defs3063" />
  <sodipodi:namedview
     id="base"
     pagecolor="#ffffff"
     bordercolor="#666666"
     borderopacity="1.0"
     inkscape:pageopacity="0.0"
     inkscape:pageshadow="2"
     inkscape:zoom="1.4"
     inkscape:cx="134.94285"
     inkscape:cy="213.36181"
     inkscape:document-units="px"
     inkscape:current-layer="layer1"
     showgrid="false"
     inkscape:window-width="1280"
     inkscape:window-height="1000"
     inkscape:window-x="1920"
     inkscape:window-y="24"
     inkscape:window-maximized="1" />
  <metadata
     id="metadata3066">
    <rdf:RDF>
      <cc:Work
         rdf:about="">
        <dc:format>image/svg+xml</dc:format>
        <dc:type
           rdf:resource="http://purl.org/dc/dcmitype/StillImage" />
        <dc:title></dc:title>
      </cc:Work>
    </rdf:RDF>
  </metadata>
  <g
     inkscape:label="Layer 1"
     inkscape:groupmode="layer"
     id="layer1">
    <path
       id="path3122"
       style="fill:#008080;fill-opacity:1;fill-rule:evenodd;stroke:#000000;stroke-opacity:1"
       d="m 121.71037,1010.2595 c 0.31,-0.4546 0.48875,-1.1739 1.32625,-0.5733 l 3.835,10.313 c 1.15875,-0.024 2.78125,2.8267 3.94,0.1138 1.21125,-1.0435 1.12625,-3.1998 1.69,-4.7994 l -4.8275,-5.9716 c -0.22375,-1.3076 0.17125,-1.6255 1.1825,-0.9541 l 3.6625,4.1108 c 1.605,0.8038 3.0875,0.8653 4.445,0.1855 1.65125,-1.6665 2.0675,-3.334 1.25,-5 -3.9,-2.4746 -9.86125,-0.012 -5.9575,-5.7616 1.63625,-2.40924 5.015,-4.09187 8.14,-8.30575 5,-6.74237 7.8175,-13.39362 7.8175,-24.68237 l 0,-13.75 c 0,-6.37 -5,-8.46125 -5,-17.5 0,-2.87125 2.64875,-27.54625 3.255,-29.245 2.345,-6.575 14.6625,-10.16875 20.64625,-13.43625 2.56875,-0.40125 3.7825,1.78625 3.59875,2.68125 0,9.905 3.56875,24.32875 5,33.75 1.0425,6.86125 7.5,30.28625 7.5,32.5 0,10.9525 -24.07125,41.14722 -29.96,49.31762 l -13.79,-0.5679 -3.79375,9.4254 21.29375,10.5746 8.93375,4.3097 2.31625,-4.3097 3.75,0 c 3.78,0 4.01125,-2.0272 4.305,-5.5561 -7.22,-0.6006 -9.35375,-2.9824 -9.23875,-9.3369 11.66625,-6.5025 32.4175,-40.49297 33.68375,-53.85672 l 0,-13.75 c -1.11,-4.53125 -18.75,-55.82875 -18.75,-57.5 -5.6825,-9.11875 34.4625,-25.27125 45,-25 l 11.25,0 c 10.54375,0 33.89375,33.32125 38.75,42.5 -10.885,5.76 -24.07875,9.50375 -35.45125,15.7975 -7.0575,3.905 -19.54875,21.17875 -19.54875,31.7025 l 0,5 c 0,10.3075 20.6625,54.82202 26.45125,61.38162 -1.965,2.9283 -6.21875,7.5034 -3.16375,11.2109 1.42,1.3887 18.5025,20.7852 19.2125,11.1572 0,-4.9521 -4.0975,-2.8558 -7.5,-7.5 5.77875,-3.1845 4.53125,2.1773 11.5275,2.1773 6.57375,1.1749 20.5525,0.8652 19.7225,-1.5761 1.19375,-14.1588 -19.58625,0.4096 -27.5,-9.3512 l 16.065,0.9278 c 5.44,0 16.98875,-6.0126 14.0275,-11.4883 -3.45625,-10.9351 -17.21625,12.833 -30.44,2.1778 16.0525,0.8501 20.5475,-6.1196 16.5125,-9.2525 -2.18125,-1.6934 -9.7775,2.293 -18.665,6.3852 -5.41,0 -10.74,-20.60197 -12.6775,-26.07272 -1.16875,-3.30075 -9.8225,-28.212 -9.8225,-30.177 l 0,-5 c 0,-9.30375 13.065,-19.04375 19.8175,-23.1475 2.52,-4.0475 24.5975,-15.15625 27.6825,-14.3525 8.61625,-3.215 11.79625,10.655 23.75,11.25 11.95125,0 14.49875,-8.75 21.25,-8.75 5.1875,0 27.5,43.605 27.5,51.25 0,15.63875 -14.32125,34.65062 -30,34.99972 -2.14875,-9.22359 -3.60375,-19.99972 -15,-19.99972 l -3.75,0 c -4.07875,0 -4.8575,-0.0963 -6.99,1.7575 -4.98375,2.05375 -5.15375,1.97475 -5.51,4.49225 2.92,10.93697 17.89,-1.61325 21.065,6.24997 l 2.685,11.25 c -5.08375,-3.497 -8.5175,-9.2421 -12.5,-8.52 -3.68375,0 -10.28375,-1.2797 -12.5,2.27 2.7575,10.3272 15.235,-3.4487 16.25,8.75 l -11.25,-2.225 c -3.52,0 -4.0725,2.395 -3.6575,4.725 0.6975,2.2272 3.59375,2.5 7.4075,2.5 l 13.75,0 c 0.2525,1.0553 -15.36625,3.67 -16.64375,6.7398 -0.535,1.2852 1.44875,5.8819 7.89375,5.7602 11.94625,-1.101 19.21875,-11.4067 13.75,1.25 0,2.9263 1.70375,4.5362 4.63,4.5362 5.5775,0 8.01875,-9.3364 10.85875,-14.0474 4.07875,-6.766 7.55375,-7.9965 14.0125,-12.2373 8.29,-5.4418 19.24875,-19.17085 19.24875,-32.00122 l 0,-6.25 c 0,-23.33375 -1.85375,-23.98625 -11.275,-37.47375 -7.25625,-10.39 -19.41875,-18.7825 -23.91,-25.49 4.13125,-0.805 9.89125,0.51625 10.185,-4.53625 l 0,-6.25 c 0,-7.08625 -7.405,-1.0525 -10.2775,-8.4725 -1.675,-4.325 -2.75375,-10.15375 -4.88625,-15.11375 -3.41625,-7.945 -11.87625,-15.16375 -23.58625,-15.16375 -8.175,0 -18.2825,7.31875 -20,13.75 -5.30625,-1.41625 -2.18625,-2.5 -6.25,-2.5 -2.88,0 -3.75,0.87 -3.75,3.75 0,1.95 9.83125,16.15875 10,23.75 -4.58,-1.2225 -15.31,-24.16875 -20.69375,-30.55625 -5.52,-6.55 -17.17125,-23.19375 -28.05625,-23.19375 -12.49125,0 -46.0875,15.81375 -57.3225,20.1775 -10.9675,4.26 -14.62,9.535 -25.3375,13.4125 -10.0575,3.63875 -20.1325,15.16 -23.59,15.16 -2.8025,0 -2.74375,-0.99 -5,-2.5 -0.155,-28.9725 -98.0235,-37.665 -96.24962,-102.5 -0.98488,-14.69625 8.8575,-50.69125 18.397,-57.8525 10.30175,-11.61375 35.19137,-22.80375 55.35262,-22.1475 l 5,0 c 15.3475,0 28.62375,5.5275 36.5825,13.41875 4.7525,4.7125 19.6675,22.92875 19.6675,30.33125 l 0,12.5 c 0,11.405 -15.3375,30.01 -19.80625,38.945 -7.375,14.7475 -16.00875,22.305 -37.69375,22.305 l -8.75,0 c -16.73,0 -43.74962,-34.93 -43.74962,-52.5 l 0,-12.5 c -1.34125,-19.22 24.75087,-37.1575 44.99962,-35 l 2.5,0 c 18.8575,0 41.25,15.92 41.25,33.75 l 0,1.25 c 0,21.03625 -19.0325,46.25 -40,46.25 l -2.5,0 c -13.565,0 -29.99962,-23.895 -29.99962,-38.75 0,-12.9575 14.10087,-23.75 27.49962,-23.75 14.745,0 26.25,8.68875 26.25,22.5 0,29.98375 -37.5,29.4825 -37.5,2.5 0.001,-8.90125 10.6075,-12.7175 16.25,-8.75 5.40875,0.5225 9.15625,10.47 2.7775,12.59 -4.3175,0 -5.6975,-2.7775 -6.5275,-6.34 -4.03125,-14.23 -20.0125,13.58 4.26,14.25875 7.9475,0 7.97625,-2.5225 10.6025,-7.2225 0,-12.25625 3.78875,-23.28625 -13.6125,-23.28625 l -2.5,0 c -9.645,0 -19.99962,11.845 -19.99962,21.25 l 0,1.25 c 0,12.2525 12.92587,25 23.74962,25 l 10,0 c 8.395,0 21.25,-20.20875 21.25,-26.25 l 0,-11.25 c 0,-6.21125 -10.015,-16.3775 -14.22625,-19.52375 -7.0975,-5.3025 -17.74,-5.47625 -29.52375,-5.47625 l -1.25,0 c -13.27837,0 -28.74962,17.98125 -28.74962,27.5 0,6.68 2.28225,12.19125 5,16.25 -1.4795,2.6375 0,4.16625 0,6.25 8.10212,12.1 3.91512,9.8875 15.93587,20.31375 4.48375,3.89 17.70625,12.18625 25.31375,12.18625 26.4575,0 48.75,-31.565 48.75,-60 l 0,-2.5 c 0,-16.07625 -27.8525,-40 -42.5,-40 -20.36625,0 -38.3345,2.08875 -49.69925,11.55125 -8.3785,6.97625 -20.30037,28.40125 -20.30037,42.19875 l 0,6.25 c 0,16.8375 29.11287,61.94375 46.75962,61.94375 l 32.0825,0.0925 c 5.78625,0 19.295,-7.0325 22.74,-10.455 6.04875,-6.975 10.1925,-11.93125 14.695,-20.30375 3.97875,-7.87625 16.45625,-38.94625 17.19625,-44.83375 10.18,-23.79375 -35.71125,-65.19376 -60.97375,-65.19376 l -11.25,0 c -23.8525,0 -52.649,13.56626 -63.898,26.10126 -10.80375,12.04 -27.35162,40.21 -27.35162,62.64875 l 0,2.5 c 0,26.17 28.59862,69.62375 43.23787,80.5125 11.894,8.8475 23.893,17.2 37.98175,23.2675 9.66125,4.16125 40.03,11.18125 40.03,22.47 l 0,1.25 c 0,5.19875 -5,10.71375 -5,21.25 0,8.08 5,14.14375 5,27.5 l 0,10 c 0,3.77875 -12.1425,15.22825 -13.75,21.24975 -6.14125,-0.51125 -3.28375,-3.98338 -8.70375,-3.98338 -5.8775,1.4775 -13.04375,-1.59225 -16.43,4.03513 0.0212,2.98252 -0.625,6.08352 2.47,8.29502 l 7.01625,0.6332 1.57375,4.1212 c 14.93375,-1.9473 7.50375,15.2792 16.57375,16.435 7.125,0 0.765,-12.8707 -0.25375,-16.9609"
       inkscape:connector-curvature="0" />
  </g>
</svg>
